<!--?xml version="1.0" standalone="no"?-->
              <svg id="sw-js-blob-svg" viewBox="0 0 100 100" xmlns="http://www.w3.org/2000/svg" version="1.1">
                    <defs> 
                        <linearGradient id="sw-gradient" x1="0" x2="1" y1="1" y2="0">
                            <stop id="stop1" stop-color="rgba(243, 237, 71, 1)" offset="0%"></stop>
                            <stop id="stop2" stop-color="rgba(42, 220, 125, 1)" offset="100%"></stop>
                        </linearGradient>
                    </defs>
                <path fill="url(#sw-gradient)" d="M22,-25.9C28.5,-20.8,33.8,-13.8,35.9,-5.7C38,2.3,37,11.6,33.1,19.8C29.2,28.1,22.3,35.4,14.1,38C5.9,40.7,-3.7,38.7,-12.3,35.1C-20.9,31.4,-28.3,26,-33.2,18.7C-38,11.3,-40.3,1.9,-39.1,-7.2C-37.9,-16.4,-33.3,-25.3,-26.2,-30.3C-19.1,-35.4,-9.6,-36.6,-0.9,-35.5C7.8,-34.4,15.5,-31.1,22,-25.9Z" width="100%" height="100%" transform="translate(50 50)" stroke-width="0" style="transition: all 0.3s ease 0s;" stroke="url(#sw-gradient)"></path>
              </svg>