<!--?xml version="1.0" standalone="no"?-->
              <svg id="sw-js-blob-svg" viewBox="0 0 100 100" xmlns="http://www.w3.org/2000/svg" version="1.1">
                    <defs> 
                        <linearGradient id="sw-gradient" x1="0" x2="1" y1="1" y2="0">
                            <stop id="stop1" stop-color="rgba(243, 237, 71, 1)" offset="0%"></stop>
                            <stop id="stop2" stop-color="rgba(42, 220, 125, 1)" offset="100%"></stop>
                        </linearGradient>
                    </defs>
                <path fill="url(#sw-gradient)" d="M21.9,-27.8C29.7,-24.4,38.3,-19.8,42.2,-12.6C46.1,-5.3,45.4,4.6,41.3,12.3C37.3,20.1,30,25.7,22.6,30.9C15.2,36.1,7.6,40.8,-0.3,41.2C-8.3,41.7,-16.5,37.9,-22.3,32.2C-28.1,26.5,-31.3,18.9,-34.2,10.9C-37.1,2.9,-39.6,-5.4,-38.6,-13.8C-37.6,-22.3,-33.2,-30.9,-26.2,-34.5C-19.2,-38.2,-9.6,-36.7,-1.3,-35C7,-33.2,14.1,-31.1,21.9,-27.8Z" width="100%" height="100%" transform="translate(50 50)" stroke-width="0" style="transition: all 0.3s ease 0s;" stroke="url(#sw-gradient)"></path>
              </svg>