<!--?xml version="1.0" standalone="no"?-->
              <svg id="sw-js-blob-svg" viewBox="0 0 100 100" xmlns="http://www.w3.org/2000/svg" version="1.1">
                    <defs> 
                        <linearGradient id="sw-gradient" x1="0" x2="1" y1="1" y2="0">
                            <stop id="stop1" stop-color="rgba(243, 237, 71, 1)" offset="0%"></stop>
                            <stop id="stop2" stop-color="rgba(42, 220, 125, 1)" offset="100%"></stop>
                        </linearGradient>
                    </defs>
                <path fill="url(#sw-gradient)" d="M23.3,-30.1C31.1,-26.4,38.9,-20.8,41.5,-13.3C44.1,-5.9,41.5,3.4,37.3,10.7C33,18.1,27,23.5,20.5,28.5C14,33.5,7,38.1,-1.1,39.7C-9.2,41.2,-18.5,39.7,-26.2,35.1C-33.9,30.5,-40,22.7,-42.9,13.9C-45.8,5.1,-45.3,-4.7,-42.3,-13.7C-39.4,-22.7,-33.8,-30.8,-26.3,-34.6C-18.9,-38.4,-9.4,-37.8,-0.8,-36.6C7.8,-35.5,15.5,-33.8,23.3,-30.1Z" width="100%" height="100%" transform="translate(50 50)" stroke-width="0" style="transition: all 0.3s ease 0s;" stroke="url(#sw-gradient)"></path>
              </svg>