<?xml version="1.0" encoding="utf-8"?>
<svg viewBox="47.8096 209.065 367.8229 76.8082" xmlns="http://www.w3.org/2000/svg" xmlns:xlink="http://www.w3.org/1999/xlink">
  <g id="logo-group" transform="matrix(1, 0, 0, 1, -280.2789306640625, -136.5309295654297)">
    <image id="container" x="272" y="144" width="480" height="480" style="display: none;" transform="translate(0 0)" xlink:href=""/>
    <g id="logo-center" transform="translate(0 0)">
      <image id="icon_container" style="display: none;" x="0" y="0" xlink:href=""/>
      <g id="slogan" style="font-style:normal;font-weight:600;font-size:32px;line-height:1;font-family:Quicksand;font-variant-ligatures:none;text-align:center;text-anchor:middle" transform="translate(0 0)"/>
      <g id="title" style="font-style:normal;font-weight:300;font-size:72px;line-height:1;font-family:'Montserrat Light Alt1';font-variant-ligatures:none;text-align:center;text-anchor:middle" transform="translate(0 0)">
        <path id="path628912" style="font-style:normal;font-weight:300;font-size:72px;line-height:1;font-family:'Montserrat Light Alt1';font-variant-ligatures:none;text-align:center;text-anchor:middle" d="m 418.61094,-27.216 h -32.616 v 3.24 h 32.616 z m 0,-23.184 h -32.616 v 3.312 h 32.616 z m -32.616,47.088 V 0 h 32.616 v -3.312 z" stroke-width="0" stroke-linejoin="miter" stroke-miterlimit="2" fill="#f3ed47" stroke="#f3ed47" transform="translate(0 318.56824) translate(328.08850795000006 31.35200000000001) scale(1.43) translate(-385.99494 50.4)"/>
        <path id="path628914" style="font-style:normal;font-weight:300;font-size:72px;line-height:1;font-family:'Montserrat Light Alt1';font-variant-ligatures:none;text-align:center;text-anchor:middle" d="m 437.48619,-2.16 c 2.88,1.656 6.12,2.448 9.792,2.448 3.024,0 5.76,-0.576 8.208,-1.728 2.448,-1.152 4.464,-2.88 6.048,-5.184 l -2.664,-1.944 c -1.368,1.872 -3.024,3.312 -5.04,4.248 -2.016,0.936 -4.176,1.368 -6.552,1.368 -2.952,0 -5.616,-0.648 -7.92,-1.944 -2.304,-1.296 -4.176,-3.168 -5.472,-5.616 -1.296,-2.376 -1.944,-5.112 -1.944,-8.28 0,-3.096 0.648,-5.832 1.944,-8.28 1.296,-2.376 3.168,-4.248 5.472,-5.544 2.304,-1.296 4.968,-2.016 7.92,-2.016 2.376,0 4.536,0.504 6.552,1.44 2.016,0.936 3.672,2.304 5.04,4.176 l 2.664,-1.944 c -1.584,-2.232 -3.6,-3.96 -6.048,-5.112 -2.448,-1.152 -5.184,-1.8 -8.208,-1.8 -3.672,0 -6.912,0.864 -9.792,2.448 -2.88,1.584 -5.184,3.888 -6.768,6.768 -1.656,2.88 -2.448,6.192 -2.448,9.864 0,3.672 0.792,6.984 2.448,9.864 1.584,2.88 3.888,5.184 6.768,6.768 z" stroke-width="0" stroke-linejoin="miter" stroke-miterlimit="2" fill="#d2ea50" stroke="#d2ea50" transform="translate(0 318.56824) translate(388.5421154500001 49.26704) scale(1.43) translate(-428.27019 37.872)"/>
        <path id="path628916" style="font-style:normal;font-weight:300;font-size:72px;line-height:1;font-family:'Montserrat Light Alt1';font-variant-ligatures:none;text-align:center;text-anchor:middle" d="m 476.64856,-2.16 c 2.88,1.656 6.048,2.448 9.648,2.448 3.528,0 6.696,-0.792 9.576,-2.448 2.88,-1.584 5.112,-3.888 6.768,-6.768 1.584,-2.88 2.448,-6.192 2.448,-9.864 0,-3.6 -0.864,-6.912 -2.448,-9.792 -1.656,-2.88 -3.888,-5.184 -6.768,-6.84 -2.88,-1.584 -6.048,-2.448 -9.576,-2.448 -3.6,0 -6.768,0.864 -9.648,2.448 -2.88,1.656 -5.112,3.96 -6.696,6.84 -1.656,2.88 -2.448,6.192 -2.448,9.792 0,3.672 0.792,6.984 2.448,9.864 1.584,2.88 3.816,5.184 6.696,6.768 z m 17.352,-2.808 c -2.304,1.368 -4.824,2.016 -7.704,2.016 -2.88,0 -5.472,-0.648 -7.776,-2.016 -2.304,-1.296 -4.104,-3.168 -5.4,-5.616 -1.296,-2.376 -1.944,-5.112 -1.944,-8.208 0,-3.024 0.648,-5.76 1.944,-8.208 1.296,-2.376 3.096,-4.248 5.4,-5.616 2.304,-1.296 4.896,-2.016 7.776,-2.016 2.88,0 5.4,0.72 7.704,2.016 2.304,1.368 4.104,3.24 5.4,5.616 1.296,2.448 2.016,5.184 2.016,8.208 0,3.096 -0.72,5.832 -2.016,8.208 -1.296,2.448 -3.096,4.32 -5.4,5.616 z" stroke-width="0" stroke-linejoin="miter" stroke-miterlimit="2" fill="#b0e759" stroke="#b0e759" transform="translate(0 318.56824) translate(444.6472645500001 49.26704) scale(1.43) translate(-467.50456 37.872)"/>
        <path id="path628918" style="font-style:normal;font-weight:300;font-size:72px;line-height:1;font-family:'Montserrat Light Alt1';font-variant-ligatures:none;text-align:center;text-anchor:middle" d="m 525.04269,-35.64 c -2.448,1.44 -4.248,3.528 -5.4,6.264 v -8.208 h -3.456 V 0 h 3.6 v -19.584 c 0,-4.608 1.152,-8.28 3.528,-10.872 2.304,-2.592 5.616,-3.96 9.792,-3.96 l 0.864,0.072 v -3.528 c -3.528,0 -6.48,0.792 -8.928,2.232 z" stroke-width="0" stroke-linejoin="miter" stroke-miterlimit="2" fill="#8fe562" stroke="#8fe562" transform="translate(0 318.56824) translate(514.26271045 49.26704) scale(1.43) translate(-516.18669 37.872)"/>
        <path id="path628920" style="font-style:normal;font-weight:300;font-size:72px;line-height:1;font-family:'Montserrat Light Alt1';font-variant-ligatures:none;text-align:center;text-anchor:middle" d="M 543.88981,-37.584 V 0 h 3.6 v -37.584 z m -0.288,-9.936 c 0.576,0.576 1.224,0.792 2.088,0.792 0.792,0 1.512,-0.288 2.088,-0.864 0.576,-0.576 0.864,-1.224 0.864,-2.088 0,-0.792 -0.288,-1.44 -0.864,-2.016 -0.576,-0.576 -1.296,-0.864 -2.088,-0.864 -0.864,0 -1.512,0.288 -2.088,0.864 -0.576,0.576 -0.864,1.296 -0.864,2.088 0,0.864 0.288,1.512 0.864,2.088 z" stroke-width="0" stroke-linejoin="miter" stroke-miterlimit="2" fill="#6de26b" stroke="#6de26b" transform="translate(0 318.56824) translate(552.2308120499999 28.263200000000005) scale(1.43) translate(-542.73781 52.56)"/>
        <path id="path628922" style="font-style:normal;font-weight:300;font-size:72px;line-height:1;font-family:'Montserrat Light Alt1';font-variant-ligatures:none;text-align:center;text-anchor:middle" d="m 596.14156,-53.424 h -3.6 v 24.552 c -1.584,-2.808 -3.672,-5.04 -6.336,-6.624 -2.664,-1.584 -5.688,-2.376 -9,-2.376 -3.528,0 -6.696,0.864 -9.504,2.448 -2.88,1.584 -5.112,3.888 -6.696,6.768 -1.584,2.88 -2.376,6.192 -2.376,9.864 0,3.744 0.792,6.984 2.376,9.864 1.584,2.88 3.816,5.184 6.696,6.768 2.808,1.656 5.976,2.448 9.504,2.448 3.384,0 6.408,-0.792 9.144,-2.376 2.664,-1.584 4.752,-3.816 6.264,-6.768 V 0 h 3.528 z m -11.016,48.456 c -2.304,1.368 -4.824,2.016 -7.704,2.016 -2.88,0 -5.472,-0.648 -7.776,-2.016 -2.304,-1.296 -4.104,-3.168 -5.4,-5.616 -1.296,-2.376 -1.944,-5.112 -1.944,-8.208 0,-3.024 0.648,-5.76 1.944,-8.208 1.296,-2.376 3.096,-4.248 5.4,-5.616 2.304,-1.296 4.896,-2.016 7.776,-2.016 2.88,0 5.4,0.72 7.704,2.016 2.304,1.368 4.104,3.24 5.4,5.616 1.296,2.448 2.016,5.184 2.016,8.208 0,3.096 -0.72,5.832 -2.016,8.208 -1.296,2.448 -3.096,4.32 -5.4,5.616 z" stroke-width="0" stroke-linejoin="miter" stroke-miterlimit="2" fill="#4bdf74" stroke="#4bdf74" transform="translate(0 318.56824) translate(574.95601455 27.027679999999997) scale(1.43) translate(-558.62956 53.424)"/>
        <path id="path628924" style="font-style:normal;font-weight:300;font-size:72px;line-height:1;font-family:'Montserrat Light Alt1';font-variant-ligatures:none;text-align:center;text-anchor:middle" d="m 633.56581,-4.248 c -2.088,0.864 -4.392,1.296 -6.768,1.296 -3.888,0 -7.128,-1.008 -9.864,-3.024 -2.736,-2.016 -4.608,-4.752 -5.472,-8.208 l 31.752,-6.192 c -0.216,-3.312 -1.008,-6.264 -2.592,-8.928 -1.584,-2.664 -3.672,-4.752 -6.264,-6.264 -2.592,-1.512 -5.544,-2.304 -8.784,-2.304 -3.528,0 -6.696,0.864 -9.432,2.448 -2.808,1.656 -4.968,3.888 -6.552,6.768 -1.584,2.88 -2.304,6.192 -2.304,9.864 0,3.744 0.792,6.984 2.448,9.864 1.656,2.88 3.96,5.184 6.912,6.768 2.952,1.656 6.264,2.448 10.08,2.448 2.88,0 5.544,-0.504 8.064,-1.512 2.376,-1.008 4.464,-2.52 6.12,-4.608 l -2.088,-2.376 c -1.44,1.8 -3.168,3.096 -5.256,3.96 z m -15.624,-28.44 c 2.232,-1.296 4.752,-2.016 7.632,-2.016 2.448,0 4.752,0.576 6.768,1.656 2.016,1.08 3.6,2.592 4.896,4.392 1.224,1.872 2.016,3.96 2.376,6.192 l -28.656,5.616 c -0.144,-0.936 -0.144,-1.656 -0.144,-2.232 0,-2.952 0.576,-5.688 1.872,-8.064 1.224,-2.376 2.952,-4.248 5.256,-5.544 z" stroke-width="0" stroke-linejoin="miter" stroke-miterlimit="2" fill="#2adc7d" stroke="#2adc7d" transform="translate(0 318.56824) translate(644.5344520499999 49.26704) scale(1.43) translate(-607.28581 37.872)"/>
      </g>
      <image id="icon" style="display: none;" x="0" y="0" xlink:href=""/>
    </g>
  </g>
</svg>