<svg width="15" height="15" viewBox="0 0 15 15" fill="none" xmlns="http://www.w3.org/2000/svg">
<path d="M2.5 12.5C2.15625 12.5 1.86198 12.3776 1.61719 12.1328C1.3724 11.888 1.25 11.5938 1.25 11.25V3.75C1.25 3.40625 1.3724 3.11198 1.61719 2.86719C1.86198 2.6224 2.15625 2.5 2.5 2.5H12.5C12.8438 2.5 13.138 2.6224 13.3828 2.86719C13.6276 3.11198 13.75 3.40625 13.75 3.75V11.25C13.75 11.5938 13.6276 11.888 13.3828 12.1328C13.138 12.3776 12.8438 12.5 12.5 12.5H2.5ZM7.5 8.125L2.5 5V11.25H12.5V5L7.5 8.125ZM7.5 6.875L12.5 3.75H2.5L7.5 6.875ZM2.5 5V3.75V11.25V5Z" fill="white"/>
</svg>
