<svg width="15" height="15" viewBox="0 0 15 15" fill="none" xmlns="http://www.w3.org/2000/svg">
<path d="M12.4688 13.125C11.1667 13.125 9.88021 12.8411 8.60938 12.2734C7.33854 11.7057 6.18229 10.901 5.14062 9.85938C4.09896 8.81771 3.29427 7.66146 2.72656 6.39062C2.15885 5.11979 1.875 3.83333 1.875 2.53125C1.875 2.34375 1.9375 2.1875 2.0625 2.0625C2.1875 1.9375 2.34375 1.875 2.53125 1.875H5.0625C5.20833 1.875 5.33854 1.92448 5.45312 2.02344C5.56771 2.1224 5.63542 2.23958 5.65625 2.375L6.0625 4.5625C6.08333 4.72917 6.07812 4.86979 6.04688 4.98438C6.01562 5.09896 5.95833 5.19792 5.875 5.28125L4.35938 6.8125C4.56771 7.19792 4.8151 7.57031 5.10156 7.92969C5.38802 8.28906 5.70312 8.63542 6.04688 8.96875C6.36979 9.29167 6.70833 9.59115 7.0625 9.86719C7.41667 10.1432 7.79167 10.3958 8.1875 10.625L9.65625 9.15625C9.75 9.0625 9.8724 8.99219 10.0234 8.94531C10.1745 8.89844 10.3229 8.88542 10.4688 8.90625L12.625 9.34375C12.7708 9.38542 12.8906 9.46094 12.9844 9.57031C13.0781 9.67969 13.125 9.80208 13.125 9.9375V12.4688C13.125 12.6562 13.0625 12.8125 12.9375 12.9375C12.8125 13.0625 12.6562 13.125 12.4688 13.125ZM3.76562 5.625L4.79688 4.59375L4.53125 3.125H3.14062C3.19271 3.55208 3.26562 3.97396 3.35938 4.39062C3.45312 4.80729 3.58854 5.21875 3.76562 5.625ZM9.35938 11.2188C9.76562 11.3958 10.1797 11.5365 10.6016 11.6406C11.0234 11.7448 11.4479 11.8125 11.875 11.8438V10.4688L10.4062 10.1719L9.35938 11.2188Z" fill="white"/>
</svg>
